inDegrees=yes
name=ik_S46_A08_T01
DataType=double
version=3
OpenSimVersion=4.3-2021-08-27-4bc7ad9
endheader
time	pelvis_tilt	pelvis_list	pelvis_rotation	pelvis_tx	pelvis_ty	pelvis_tz	hip_flexion_r	hip_adduction_r	hip_rotation_r	knee_angle_r	knee_angle_r_beta	ankle_angle_r	subtalar_angle_r	mtp_angle_r	hip_flexion_l	hip_adduction_l	hip_rotation_l	knee_angle_l	knee_angle_l_beta	ankle_angle_l	subtalar_angle_l	mtp_angle_l	lumbar_extension	lumbar_bending	lumbar_rotation	arm_flex_r	arm_add_r	arm_rot_r	elbow_flex_r	pro_sup_r	wrist_flex_r	wrist_dev_r	arm_flex_l	arm_add_l	arm_rot_l	elbow_flex_l	pro_sup_l	wrist_flex_l	wrist_dev_l
19.39999999999968	-10.39813832553952	-2.671741507177347	29.95816077334201	0	0.9399999999999999	0	38.35457647962298	-10.17269594779002	-9.85296034922521	47.15343067464599	0.8229826188834636	0	0	0	38.35457647962298	-10.17269594779002	-9.85296034922521	47.15343067464599	0.8229826188834636	0	0	0	-9.472891483625791	-0.1439820786082063	0.1794010219133985	15.91569678952442	-7.522698742543721	6.819265511955329	63.2534368232219	135.8198585251708	0	0	61.55590864903955	2.349305508829736	3.051842627849399	51.98571706814475	82.92720758546994	0	0
19.41999999999967	-10.43246337110796	-2.684923796005626	29.93120257274365	0	0.9399999999999999	0	38.355084028525	-10.17265125347557	-9.852984948821033	47.1538432038442	0.822989818876233	0	0	0	38.355084028525	-10.17265125347557	-9.852984948821033	47.1538432038442	0.822989818876233	0	0	0	-9.509239782178859	-0.138183451909051	0.181700207389386	15.95355710257085	-7.52808634059509	6.860311363660617	63.26564567704385	135.8303277868251	0	0	61.43320833933166	2.383918690765754	3.121319990829806	51.92807320070835	82.95882474215803	0	0
19.43999999999967	-10.45859557159109	-2.699641689017423	29.90191106957146	0	0.9399999999999999	0	38.35782442718919	-10.17240453398555	-9.853119725444992	47.15602414505238	0.8230278834811082	0	0	0	38.35782442718919	-10.17240453398555	-9.853119725444992	47.15602414505238	0.8230278834811082	0	0	0	-9.539670263544441	-0.1361476023778232	0.1781075983329684	15.96939797091789	-7.516179583512263	6.878319932527453	63.28257364510404	135.8449668929558	0	0	61.40487554763452	2.419400101724817	3.131734667416463	51.67625858075993	83.07770362983257	0	0
19.45999999999967	-10.48522517095783	-2.708686104675588	29.87680622620914	0	0.9399999999999999	0	38.35836504600582	-10.17235680751106	-9.853145976248676	47.1564621211496	0.8230355276060497	0	0	0	38.35836504600582	-10.17235680751106	-9.853145976248676	47.1564621211496	0.8230355276060497	0	0	0	-9.567584177502711	-0.1292706156237072	0.1728561258577025	15.99599002973108	-7.51675218600132	6.896989222286613	63.30278592449576	135.8584478606142	0	0	61.33648141871423	2.431287863501847	3.122040895783261	51.59734480182291	83.08308131556552	0	0
19.47999999999967	-10.51138121386079	-2.720161290040282	29.84973815132842	0	0.9399999999999999	0	38.36079339658063	-10.17213898740236	-9.853265140303195	47.15839952919226	0.8230693417553486	0	0	0	38.36079339658063	-10.17213898740236	-9.853265140303195	47.15839952919226	0.8230693417553486	0	0	0	-9.596268921530527	-0.1249450786488717	0.1715960683687795	16.00953761039571	-7.506829288212604	6.89688100663574	63.33773408431978	135.875676550876	0	0	61.34013131893445	2.478172451022252	3.072210178481836	51.28926690926929	83.17252805391888	0	0
19.49999999999967	-10.53776704776774	-2.733798938563757	29.82202360363051	0	0.9399999999999999	0	38.36120755702461	-10.17210247602308	-9.853285234000344	47.15873534628223	0.8230752028692531	0	0	0	38.36120755702461	-10.17210247602308	-9.853285234000344	47.15873534628223	0.8230752028692531	0	0	0	-9.626210963827997	-0.122436504460153	0.1666162462007165	16.0431922854664	-7.492784895998059	6.864990699904531	63.35013483190046	135.8898205675108	0	0	61.31453446385276	2.480864416412807	3.038278885656362	51.308741835355	83.18776831925641	0	0
19.51999999999967	-10.56044230430748	-2.743576362541306	29.79447701794131	0	0.9399999999999999	0	38.36312162401295	-10.17193139475545	-9.853378954160386	47.16026659480358	0.823101928197617	0	0	0	38.36312162401295	-10.17193139475545	-9.853378954160386	47.16026659480358	0.823101928197617	0	0	0	-9.650610961662125	-0.120113658172794	0.1735890884170351	16.04640472824273	-7.492218159118343	6.814358702274354	63.38714898478176	135.9774758383143	0	0	61.27813951257715	2.513508468778859	2.990375683557729	50.93858936574895	83.15744291202942	0	0
19.53999999999967	-10.57323568513686	-2.755039471956866	29.76861937464982	0	0.9399999999999999	0	38.364064848806	-10.17184767999055	-9.853424926895144	47.16102600617808	0.8231151824264791	0	0	0	38.364064848806	-10.17184767999055	-9.853424926895144	47.16102600617808	0.8231151824264791	0	0	0	-9.667583784805137	-0.1226386128961325	0.1698648475950489	16.05623591998278	-7.466129845369549	6.779807343055243	63.39665820445117	136.0031218341183	0	0	61.22631662239809	2.533262608867235	2.937221241101669	50.82762421148156	83.17255436268697	0	0
19.55999999999967	-10.61268106162674	-2.776486342433912	29.75097228489034	0	0.9399999999999999	0	38.36659320685084	-10.17162152674926	-9.853548804015084	47.16304576350525	0.8231504338419295	0	0	0	38.36659320685084	-10.17162152674926	-9.853548804015084	47.16304576350525	0.8231504338419295	0	0	0	-9.71296032451783	-0.1192357190483943	0.1628337676605132	16.12767322709232	-7.455088152184681	6.749232913688512	63.42842352150653	136.0648414660595	0	0	61.24816274974378	2.567849090633624	2.810769345219833	50.54655399167557	83.3018031820354	0	0
19.57999999999967	-10.63168318894373	-2.787579368125426	29.73432931593082	0	0.9399999999999999	0	38.36727824725141	-10.1715617220087	-9.853581840568793	47.16360517766534	0.8231601974609053	0	0	0	38.36727824725141	-10.1715617220087	-9.853581840568793	47.16360517766534	0.8231601974609053	0	0	0	-9.735083707017766	-0.1186947566148323	0.1609727618663442	16.15612243808381	-7.431891750698061	6.712547802183631	63.43984802468031	136.0784266069618	0	0	61.21471228470761	2.563104739451806	2.729775675673887	50.44639653147417	83.32791646545888	0	0
19.59999999999967	-10.63663697782567	-2.788666363704376	29.70107044686804	0	0.9399999999999999	0	38.35327435070538	-10.17280830115813	-9.85289576775746	47.15250145169953	0.8229664008835628	0	0	0	38.35327435070538	-10.17280830115813	-9.85289576775746	47.15250145169953	0.8229664008835628	0	0	0	-9.73798949342625	-0.124065426760972	0.1750070527306807	16.13797001415816	-7.410451577347077	6.693143813720432	63.43474964927994	136.1710366962203	0	0	61.24442537707342	2.566398967658894	2.720996100731648	50.10596360943161	83.37942990924724	0	0
19.61999999999967	-10.65757074862639	-2.796611135848696	29.68521646762891	0	0.9399999999999999	0	38.35403778301278	-10.17274099066156	-9.852932795301449	47.15312163295885	0.8229772250884971	0	0	0	38.35403778301278	-10.17274099066156	-9.852932795301449	47.15312163295885	0.8229772250884971	0	0	0	-9.760330412031109	-0.1194777880954866	0.171831522173796	16.18107241706241	-7.405742479667791	6.681849025683197	63.45082576656026	136.1652884728468	0	0	61.1793565111476	2.573107484020753	2.665141023802277	49.99423824895136	83.43163940121745	0	0
19.63999999999967	-10.67663069400245	-2.817075332652824	29.67137149344407	0	0.9399999999999999	0	38.35461802141408	-10.17268989046681	-9.852960918845206	47.15359330590931	0.8229854573344753	0	0	0	38.35461802141408	-10.17268989046681	-9.852960918845206	47.15359330590931	0.8229854573344753	0	0	0	-9.787158860715891	-0.1267880232430117	0.1672761112082102	16.22240224739431	-7.381648374573262	6.673468208294474	63.46361528520589	136.1722159160605	0	0	61.1467592147941	2.592771215918066	2.600727497389784	49.93213801052816	83.41634207287136	0	0
19.65999999999967	-10.69072199377746	-2.830329033826588	29.67213799396416	0	0.9399999999999999	0	38.34938538980524	-10.17302662322578	-9.852742008837776	47.14926813354119	0.8229099688359353	0	0	0	38.34938538980524	-10.17302662322578	-9.852742008837776	47.14926813354119	0.8229099688359353	0	0	0	-9.805522126939627	-0.1323847944982325	0.1637355328820434	16.24614894044494	-7.365399715577504	6.665842431775144	63.45387277978566	136.2077651221047	0	-1.592676641665341e-51	61.12852552826116	2.598145884130986	2.559482559674038	49.88115176857803	83.41937804441554	0	-1.592676641665341e-51
19.67999999999967	-10.69632880644263	-2.838104706246348	29.65262780424293	0	0.9399999999999999	0	38.34396731393357	-10.17350973465294	-9.852476004270265	47.14497328914324	0.8228350096603301	0	0	0	38.34396731393357	-10.17350973465294	-9.852476004270265	47.14497328914324	0.8228350096603301	0	0	0	-9.813889415711792	-0.1370527123147875	0.1583761627448105	16.22665919070648	-7.357968846587286	6.679081366314202	63.44979222638543	136.2507714768114	0	0	61.11733623177884	2.629944279919081	2.525587302074424	49.78134737354119	83.4337553566431	0	0
19.69999999999967	-10.69693072464934	-2.849038952768957	29.66988992982558	0	0.9399999999999999	0	38.34563706920722	-10.17347303246346	-9.852522516890961	47.14649110202238	0.8228615004925004	0	0	0	38.34563706920722	-10.17347303246346	-9.852522516890961	47.14649110202238	0.8228615004925004	0	0	0	-9.821124903696443	-0.1399047919215231	0.1283684013832445	16.22608753346056	-7.354159538426198	6.701023974832008	63.47842841446528	136.2616704783329	0	0	61.1774372354766	2.618231481903318	2.403186691604397	49.59024686810131	83.64096246281275	0	0
19.71999999999967	-10.68770621882114	-2.861125765300373	29.73607533580854	0	0.9399999999999999	0	38.34899807908064	-10.17317073606017	-9.852687629080359	47.14917564505897	0.8229083546074003	0	0	0	38.34899807908064	-10.17317073606017	-9.852687629080359	47.14917564505897	0.8229083546074003	0	0	0	-9.822063189335774	-0.1417612869049874	0.06523468968595589	16.20652283103664	-7.33483480680719	6.69324279809192	63.49093774163935	136.2537215625295	0	0	61.23909067762546	2.555792330620343	2.227264374764516	49.34905286769762	84.40615532508795	0	0
19.73999999999967	-10.67305330762322	-2.87658520737092	29.79879617419984	0	0.9399999999999999	0	38.35116611201515	-10.17297670120616	-9.852793806968236	47.15091397140664	0.8229386941256414	0	0	0	38.35116611201515	-10.17297670120616	-9.852793806968236	47.15091397140664	0.8229386941256414	0	0	0	-9.819601182438253	-0.1508446067571838	0.007347765582998548	16.20291383632297	-7.298932552042348	6.692792680967679	63.49583446350161	136.2380032196772	0	0	61.28472342517703	2.457586380832376	2.088721684388453	49.20514660528652	85.15566991950163	0	0
19.75999999999967	-10.64347680988864	-2.879246053955291	29.85648841301801	0	0.9399999999999999	0	38.35314137365395	-10.17279916681455	-9.852890825418303	47.15249054415808	0.8229662105110511	0	0	0	38.35314137365395	-10.17279916681455	-9.852890825418303	47.15249054415808	0.8229662105110511	0	0	0	-9.796607617300594	-0.1619070473269978	-0.02162298301358623	16.15702775608109	-7.292013411054587	6.655763800530432	63.47455022851262	136.2371500867077	0	0	61.29559958828115	2.330709734689159	1.960523488054889	49.03617522127801	85.6663411159672	0	0
19.77999999999967	-10.6324684980303	-2.872926582542867	29.90527355058046	0	0.9399999999999999	0	38.35438023456771	-10.17268836567711	-9.852951482214401	47.15348358163923	0.8229835422846929	0	0	0	38.35438023456771	-10.17268836567711	-9.852951482214401	47.15348358163923	0.8229835422846929	0	0	0	-9.785090667435213	-0.1576954538487897	-0.04028267149080193	16.1291742515814	-7.305284989176292	6.62847846560652	63.45884164026847	136.2652567062267	0	0	61.28462837530623	2.05854939668593	2.056320235253217	48.98909426244915	85.84498864575848	0	0
